<?xml version="1.0" encoding="utf-8"?>
<!-- Generator: Adobe Illustrator 16.0.3, SVG Export Plug-In . SVG Version: 6.00 Build 0)  -->
<!DOCTYPE svg PUBLIC "-//W3C//DTD SVG 1.1//EN" "http://www.w3.org/Graphics/SVG/1.1/DTD/svg11.dtd">
<svg version="1.1" id="Layer_1" xmlns="http://www.w3.org/2000/svg" xmlns:xlink="http://www.w3.org/1999/xlink" x="0px" y="0px"
	 width="2512.606px" height="988.299px" viewBox="0 0 2512.606 988.299" enable-background="new 0 0 2512.606 988.299"
	 xml:space="preserve">
<g>
	<path fill="#E74C3C" d="M1136.108,449.351c-60.681,0-102.539-40.735-102.539-101.135c0-56.748,41.016-101.977,103.382-101.977
		c48.882,0,78.941,27.812,91.583,59.838c1.124,3.371,0,4.214-1.405,4.776l-54.781,19.946c-1.686,0.562-1.967-0.562-2.528-1.686
		c-5.9-11.237-15.17-18.542-33.15-18.542c-24.16,0-37.364,15.451-37.364,37.926c0,22.474,15.17,37.083,38.207,37.083
		c16.856,0,26.407-8.147,32.026-18.26c0.843-1.967,1.124-2.528,3.371-1.967l54.781,16.856c3.09,0.281,3.372,1.966,2.529,3.652
		C1216.173,418.448,1183.867,449.351,1136.108,449.351z"/>
	<path fill="#E74C3C" d="M1367.029,449.351c-60.119,0-103.101-44.387-103.101-101.696c0-60.4,46.916-101.416,103.101-101.416
		c53.658,0,103.102,39.049,103.102,101.696C1470.131,407.492,1421.53,449.351,1367.029,449.351z M1367.029,312.257
		c-21.912,0-35.678,14.608-35.678,35.116c0,23.317,14.608,36.802,35.678,36.802c20.228,0,35.679-14.046,35.679-36.802
		C1402.708,325.742,1388.661,312.257,1367.029,312.257z"/>
	<path fill="#E74C3C" d="M1599.357,442.608h-75.289c-2.528,0-2.81,0.281-2.81-2.528c0-71.356,0-113.776,0-185.133
		c0-2.247,0.281-2.809,2.81-2.809h82.313c64.613,0,94.954,33.431,94.954,95.235C1701.335,411.706,1667.904,442.608,1599.357,442.608
		z M1598.795,304.953h-13.484v84.84h12.923c18.822,0,35.678-10.394,35.678-43.263
		C1633.911,315.909,1618.741,304.953,1598.795,304.953z"/>
	<path fill="#E74C3C" d="M1897.704,442.608h-142.432c-3.09,0-3.371-0.562-3.371-3.933c0-49.163,0-129.79,0-183.728
		c0-2.528-0.281-2.809,3.09-2.809h140.185c3.09,0,3.371,0.281,3.371,3.933c0,13.766,0,25.002,0,37.083
		c0,3.09-0.563,3.933-3.371,3.933h-78.38v24.722h76.413c3.09,0,3.371,0.562,3.371,3.933c0,13.766,0,31.464,0,42.701
		c0,3.09-0.281,3.652-3.371,3.652h-76.413v23.598h80.908c3.09,0,3.09,0,3.09,3.652c0,14.046,0,27.812,0,39.33
		C1900.794,442.046,1900.513,442.608,1897.704,442.608z"/>
	<path fill="#E74C3C" d="M1239.491,736.898c-14.889,0-41.858,0-66.019,0c-1.405,0-2.809-0.281-3.933-2.248
		c-3.371-7.585-6.18-14.327-9.551-21.351h-65.457c-3.652,7.866-5.619,13.766-8.99,20.508c-1.405,2.528-1.686,3.09-5.619,3.09
		c-20.227,0-36.521,0-57.591,0c-2.248,0-2.809-1.124-1.124-3.933c33.992-61.243,71.918-134.284,101.416-189.065
		c0.562-1.124,3.652-1.405,6.742-1.405c3.371,0,6.742,0,7.304,1.124c32.588,59.557,69.109,127.542,103.944,189.347
		C1242.581,736.898,1242.581,736.898,1239.491,736.898z M1132.176,643.067c-2.528-5.899-4.495-11.237-4.495-11.237
		s-1.966,5.338-4.495,11.237c-5.057,12.08-12.642,28.655-12.642,28.655h33.993C1144.537,671.722,1137.513,654.867,1132.176,643.067z
		"/>
	<path fill="#E74C3C" d="M1415.912,598.961l-49.443-3.09c0,0,0,116.586,0,138.499c0,2.248-0.281,2.528-2.81,2.528
		c-19.665,0-42.42,0-60.962,0c-2.809,0-2.809,0.281-2.809-2.528c0-34.835,0-138.499,0-138.499l-51.129,3.09
		c-1.967,0-1.967-0.281-1.967-1.966c0-15.451,0-28.655,0-47.758c0-2.247,0-2.809,2.248-2.809h166.591
		c1.967,0,2.248,0.562,2.248,2.809c0,19.104,0,32.307,0,47.758C1417.879,598.681,1417.598,598.961,1415.912,598.961z"/>
	<path fill="#E74C3C" d="M1598.797,736.898c-19.665,0-113.215,0-131.475,0c-2.81,0-2.81,0.281-2.81-2.528
		c0-72.48,0-118.271,0-185.414c0-2.809,0-2.528,2.81-2.528c18.26,0,40.173,0,59.838,0c2.528,0,2.81,0.281,2.81,2.528
		c0,21.913,0,135.689,0,135.689h68.547c2.528,0,3.09,0.562,3.09,2.809c0,10.957,0,25.003,0,46.916
		C1601.606,736.617,1601.325,736.898,1598.797,736.898z"/>
	<path fill="#E74C3C" d="M1847.699,736.898c-14.89,0-41.858,0-66.019,0c-1.404,0-2.81-0.281-3.933-2.248
		c-3.371-7.585-6.181-14.327-9.552-21.351h-65.457c-3.651,7.866-5.618,13.766-8.989,20.508c-1.405,2.528-1.686,3.09-5.619,3.09
		c-20.227,0-36.521,0-57.59,0c-2.248,0-2.81-1.124-1.124-3.933c33.992-61.243,71.918-134.284,101.415-189.065
		c0.563-1.124,3.652-1.405,6.743-1.405c3.371,0,6.742,0,7.304,1.124c32.588,59.557,69.108,127.542,103.944,189.347
		C1850.789,736.898,1850.789,736.898,1847.699,736.898z M1740.384,643.067c-2.528-5.899-4.494-11.237-4.494-11.237
		s-1.967,5.338-4.495,11.237c-5.057,12.08-12.642,28.655-12.642,28.655h33.992C1752.745,671.722,1745.722,654.867,1740.384,643.067z
		"/>
	<path fill="#E74C3C" d="M2069.069,741.955c-0.563,0.281-1.405,0-3.091-0.843c-47.758-29.217-119.114-78.098-119.114-78.098v71.356
		c0,2.528,0,2.528-2.809,2.528c-19.665,0-34.836,0-53.096,0c-2.528,0-3.091-1.686-3.091-2.809
		c-0.843-74.166-0.562-116.024,0-190.471c0-1.404,0.281-2.247,0.563-2.528c0.562-0.281,1.404,0,2.528,0.843
		c44.387,27.812,119.395,78.941,119.395,78.941v-71.075c0-3.09-0.28-3.371,2.528-3.371c18.261,0,33.993,0,53.658,0
		c3.09,0,3.09,0.562,3.09,3.371c0.562,54.781,0.843,115.462,0,188.504C2069.631,740.269,2069.631,741.674,2069.069,741.955z"/>
	<path fill="#E74C3C" d="M2283.977,598.961l-49.444-3.09c0,0,0,116.586,0,138.499c0,2.248-0.28,2.528-2.809,2.528
		c-19.665,0-42.421,0-60.962,0c-2.81,0-2.81,0.281-2.81-2.528c0-34.835,0-138.499,0-138.499l-51.129,3.09
		c-1.967,0-1.967-0.281-1.967-1.966c0-15.451,0-28.655,0-47.758c0-2.247,0-2.809,2.247-2.809h166.592
		c1.967,0,2.247,0.562,2.247,2.809c0,19.104,0,32.307,0,47.758C2285.942,598.681,2285.662,598.961,2283.977,598.961z"/>
	<path fill="#E74C3C" d="M2510.125,736.898c-14.89,0-41.858,0-66.019,0c-1.404,0-2.81-0.281-3.933-2.248
		c-3.371-7.585-6.181-14.327-9.552-21.351h-65.457c-3.651,7.866-5.618,13.766-8.989,20.508c-1.405,2.528-1.686,3.09-5.619,3.09
		c-20.227,0-36.521,0-57.59,0c-2.248,0-2.81-1.124-1.124-3.933c33.992-61.243,71.918-134.284,101.415-189.065
		c0.563-1.124,3.652-1.405,6.743-1.405c3.371,0,6.742,0,7.304,1.124c32.588,59.557,69.108,127.542,103.944,189.347
		C2513.215,736.898,2513.215,736.898,2510.125,736.898z M2402.81,643.067c-2.528-5.899-4.494-11.237-4.494-11.237
		s-1.967,5.338-4.495,11.237c-5.057,12.08-12.642,28.655-12.642,28.655h33.992C2415.171,671.722,2408.147,654.867,2402.81,643.067z"
		/>
</g>
<g>
	<path fill="#E74C3C" d="M645.024,988.299c-9.949,0.001-19.583-5.314-24.65-14.68L574.587,889H401
		c-9.663,0-19.245-0.502-28.723-1.494l-66.583,87.717c-9.313,12.268-26.785,14.714-39.106,5.469
		c-12.321-9.243-14.862-26.702-5.688-39.074l50.265-67.79c-37.873-13.267-72.578-34.988-101.791-64.201
		C158.189,758.44,130,690.387,130,618v-60H28c-15.464,0-28-12.536-28-28s12.536-28,28-28h102v-62
		c0-72.387,28.189-140.441,79.374-191.626c1.256-1.256,2.526-2.502,3.802-3.73L83.212,135.861
		c-11.824-9.897-13.421-27.491-3.573-39.355c9.848-11.866,27.435-13.534,39.34-3.733l140.729,115.852
		C301.822,182.801,350.351,169,401,169h116V28c0-15.464,12.536-28,28-28s28,12.536,28,28v141h6
		c44.402,0,87.18,10.609,125.429,30.624l94.776-90.982c11.154-10.709,28.881-10.347,39.59,0.809s10.347,28.881-0.809,39.59
		l-85.868,82.43c6.385,5.319,12.56,10.956,18.508,16.904C821.812,299.559,850,367.613,850,440v62h101c15.464,0,28,12.536,28,28
		s-12.536,28-28,28H850v60c0,72.387-28.188,140.44-79.374,191.626c-37.689,37.689-84.521,62.909-135.497,73.589l34.497,63.754
		c7.359,13.601,2.3,30.592-11.301,37.951C654.09,987.212,649.524,988.299,645.024,988.299z M413.65,833h130.635l-54.367-100.477
		L413.65,833z M517,665.212c0.539,0.79,1.04,1.611,1.501,2.463l88.477,163.513C712.36,817.435,794,727.072,794,618v-60H517V665.212z
		 M186,558v60c0,99.768,68.303,183.88,160.605,208.03L461,671.752V558H186z M517,502h277v-62c0-68.697-32.383-129.97-82.688-169.357
		L517,457.174V502z M186,502h275v-49.923L256.515,280.919C213.221,320.277,186,377.02,186,440V502z M306.316,246.992
		l187.756,154.565L517,379.547V225H401C367.042,225,334.899,232.913,306.316,246.992z M573,225v100.79l88.047-84.521
		C635.754,230.789,608.037,225,579,225H573z"/>
</g>
</svg>
