<svg xmlns="http://www.w3.org/2000/svg" xmlns:xlink="http://www.w3.org/1999/xlink" version="1.1" x="0px" y="0px" width="100px" height="100px" viewBox="0 0 100 100" enable-background="new 0 0 100 100" xml:space="preserve">
<g id="Captions">
</g>
<g id="Your_Icon">
	<g>
		<path fill="#000000" d="M52.734,4c1.025,0,1.859,0.834,1.859,1.859v36.719c0,1.025-0.834,1.859-1.859,1.859H5.859    C4.834,44.438,4,43.604,4,42.578V5.859C4,4.834,4.834,4,5.859,4H52.734 M52.734,0H5.859C2.625,0,0,2.625,0,5.859v36.719    c0,3.234,2.625,5.859,5.859,5.859h46.875c3.234,0,5.859-2.625,5.859-5.859V5.859C58.594,2.625,55.969,0,52.734,0L52.734,0z"/>
	</g>
	<g>
		<path fill="#000000" d="M52.734,55.563c1.025,0,1.859,0.834,1.859,1.859v36.719c0,1.025-0.834,1.859-1.859,1.859H5.859    C4.834,96,4,95.166,4,94.141V57.422c0-1.025,0.834-1.859,1.859-1.859H52.734 M52.734,51.563H5.859C2.625,51.563,0,54.188,0,57.422    v36.719C0,97.375,2.625,100,5.859,100h46.875c3.234,0,5.859-2.625,5.859-5.859V57.422C58.594,54.188,55.969,51.563,52.734,51.563    L52.734,51.563z"/>
	</g>
	<g>
		<path fill="#000000" d="M94.141,4C95.166,4,96,4.834,96,5.859v23.438c0,1.025-0.834,1.859-1.859,1.859H67.578    c-1.025,0-1.859-0.834-1.859-1.859V5.859C65.719,4.834,66.553,4,67.578,4H94.141 M94.141,0H67.578    c-3.234,0-5.859,2.625-5.859,5.859v23.438c0,3.234,2.625,5.859,5.859,5.859h26.563c3.234,0,5.859-2.625,5.859-5.859V5.859    C100,2.625,97.375,0,94.141,0L94.141,0z"/>
	</g>
	<g>
		<path fill="#000000" d="M94.141,43.063c1.025,0,1.859,0.834,1.859,1.859v49.219C96,95.166,95.166,96,94.141,96H67.578    c-1.025,0-1.859-0.834-1.859-1.859V44.922c0-1.025,0.834-1.859,1.859-1.859H94.141 M94.141,39.063H67.578    c-3.234,0-5.859,2.625-5.859,5.859v49.219c0,3.234,2.625,5.859,5.859,5.859h26.563c3.234,0,5.859-2.625,5.859-5.859V44.922    C100,41.688,97.375,39.063,94.141,39.063L94.141,39.063z"/>
	</g>
	<rect x="2.734" y="2.734" fill-rule="evenodd" clip-rule="evenodd" fill="#000000" width="53.516" height="7.813"/>
	<rect x="2.734" y="54.297" fill-rule="evenodd" clip-rule="evenodd" fill="#000000" width="53.516" height="7.813"/>
	<rect x="64.582" y="42.188" fill-rule="evenodd" clip-rule="evenodd" fill="#000000" width="32.293" height="7.813"/>
	<rect x="64.582" y="2.734" fill-rule="evenodd" clip-rule="evenodd" fill="#000000" width="32.293" height="7.813"/>
	
		<line fill-rule="evenodd" clip-rule="evenodd" fill="#000000" stroke="#010101" stroke-width="4" stroke-linejoin="round" stroke-miterlimit="10" x1="6.934" y1="16.602" x2="51.367" y2="16.602"/>
	
		<line fill-rule="evenodd" clip-rule="evenodd" fill="#000000" stroke="#010101" stroke-width="4" stroke-linejoin="round" stroke-miterlimit="10" x1="6.934" y1="23.633" x2="51.367" y2="23.633"/>
	
		<line fill-rule="evenodd" clip-rule="evenodd" fill="#000000" stroke="#010101" stroke-width="4" stroke-linejoin="round" stroke-miterlimit="10" x1="6.934" y1="30.664" x2="51.367" y2="30.664"/>
	
		<line fill-rule="evenodd" clip-rule="evenodd" fill="#000000" stroke="#010101" stroke-width="4" stroke-linejoin="round" stroke-miterlimit="10" x1="6.934" y1="37.695" x2="51.367" y2="37.695"/>
	
		<line fill-rule="evenodd" clip-rule="evenodd" fill="#000000" stroke="#010101" stroke-width="4" stroke-linejoin="round" stroke-miterlimit="10" x1="14.5" y1="68.359" x2="51.563" y2="68.359"/>
	
		<line fill-rule="evenodd" clip-rule="evenodd" fill="#000000" stroke="#010101" stroke-width="4" stroke-linejoin="round" stroke-miterlimit="10" x1="14.5" y1="75.391" x2="51.563" y2="75.391"/>
	
		<line fill-rule="evenodd" clip-rule="evenodd" fill="#000000" stroke="#010101" stroke-width="4" stroke-linejoin="round" stroke-miterlimit="10" x1="14.5" y1="82.422" x2="51.563" y2="82.422"/>
	
		<line fill-rule="evenodd" clip-rule="evenodd" fill="#000000" stroke="#010101" stroke-width="4" stroke-linejoin="round" stroke-miterlimit="10" x1="14.5" y1="89.453" x2="51.563" y2="89.453"/>
	
		<line fill-rule="evenodd" clip-rule="evenodd" fill="#000000" stroke="#010101" stroke-width="4" stroke-linejoin="round" stroke-miterlimit="10" x1="68.75" y1="55.859" x2="92.969" y2="55.859"/>
	
		<line fill-rule="evenodd" clip-rule="evenodd" fill="#000000" stroke="#010101" stroke-width="4" stroke-linejoin="round" stroke-miterlimit="10" x1="68.75" y1="67.578" x2="92.969" y2="67.578"/>
	
		<line fill-rule="evenodd" clip-rule="evenodd" fill="#000000" stroke="#010101" stroke-width="4" stroke-linejoin="round" stroke-miterlimit="10" x1="68.75" y1="79.297" x2="92.969" y2="79.297"/>
	
		<line fill-rule="evenodd" clip-rule="evenodd" fill="#000000" stroke="#010101" stroke-width="4" stroke-linejoin="round" stroke-miterlimit="10" x1="68.75" y1="91.016" x2="92.969" y2="91.016"/>
	
		<line fill-rule="evenodd" clip-rule="evenodd" fill="#000000" stroke="#010101" stroke-width="4" stroke-linejoin="round" stroke-miterlimit="10" stroke-dasharray="5,5" x1="68.164" y1="16.602" x2="93.555" y2="16.602"/>
	
		<line fill-rule="evenodd" clip-rule="evenodd" fill="#000000" stroke="#010101" stroke-width="4" stroke-linejoin="round" stroke-miterlimit="10" stroke-dasharray="5,5" x1="68.164" y1="23.633" x2="93.555" y2="23.633"/>
	
		<line fill="#000000" stroke="#010101" stroke-width="4" stroke-linecap="square" stroke-miterlimit="10" x1="9.381" y1="68.359" x2="10" y2="68.359"/>
	
		<line fill="#000000" stroke="#010101" stroke-width="4" stroke-linecap="square" stroke-miterlimit="10" x1="9.381" y1="75.391" x2="10" y2="75.391"/>
	
		<line fill="#000000" stroke="#010101" stroke-width="4" stroke-linecap="square" stroke-miterlimit="10" x1="9.381" y1="82.422" x2="10" y2="82.422"/>
	
		<line fill="#000000" stroke="#010101" stroke-width="4" stroke-linecap="square" stroke-miterlimit="10" x1="9.381" y1="89.453" x2="10" y2="89.453"/>
</g>
</svg>