<svg xmlns="http://www.w3.org/2000/svg" xmlns:xlink="http://www.w3.org/1999/xlink" version="1.1" id="Layer_1" x="0px" y="0px" width="100px" height="100px" viewBox="0 0 100 100" enable-background="new 0 0 100 100" xml:space="preserve">
<g>
	<path d="M95.807,9.954H4.899c-1.348,0-2.443,1.096-2.443,2.448v60.745c0,1.353,1.096,2.444,2.443,2.444h35.833   c-0.795,9.086-1.229,11.471-1.398,12.094h-0.027c-0.478,0.378-2.849,2.222-2.789,2.496v0.355h-0.004v0.396h0.004   c0.367,1.658,11.461,1.581,13.838,1.536c2.367,0.045,13.461,0.122,13.835-1.536v-0.396v-0.371v-0.01   c0.002-0.008-0.011-0.021-0.013-0.029c-0.004-0.009-0.007-0.018-0.013-0.028c-0.01-0.018-0.018-0.035-0.038-0.057   c-0.365-0.513-2.302-2.019-2.729-2.356h-0.026c-0.17-0.623-0.604-3.008-1.398-12.094h35.833c1.348,0,2.444-1.092,2.444-2.444   V12.402C98.251,11.05,97.154,9.954,95.807,9.954z M94.688,70.793H6.014V14.597h88.675V70.793z"/>
</g>
</svg>