<svg xmlns="http://www.w3.org/2000/svg" xmlns:xlink="http://www.w3.org/1999/xlink" version="1.1" id="Layer_1" x="0px" y="0px" width="100px" height="100px" viewBox="0 0 100 100" enable-background="new 0 0 100 100" xml:space="preserve">
<path d="M94.987,46.723c-0.007-1.023-0.018-1.96-0.027-2.757c-0.01-0.796-0.02-1.452-0.027-1.922  c-0.008-0.468-0.014-0.75-0.014-0.796c0-0.001,0-0.002,0-0.003s0-0.002,0-0.003v-0.001c0-0.006,0-0.012-0.001-0.018  c0-0.006,0-0.012,0-0.018c0-0.007-0.001-0.013-0.001-0.019c-0.001-0.006-0.001-0.012-0.001-0.018  c-0.024-0.462-0.211-0.898-0.524-1.296c-0.312-0.396-0.755-0.751-1.293-1.049s-1.174-0.537-1.876-0.703  c-0.701-0.165-1.47-0.257-2.275-0.257h-0.4v3.227c0.376,0,0.68,0.304,0.68,0.68v3.735c0,0.375-0.304,0.68-0.68,0.68h-0.679  c-0.375,0-0.68-0.305-0.68-0.68v-3.735c0-0.376,0.305-0.68,0.68-0.68v-3.227h-0.399c-0.806,0-1.574,0.092-2.276,0.257  c-0.702,0.166-1.337,0.405-1.875,0.703c-0.539,0.298-0.98,0.653-1.294,1.049c-0.313,0.397-0.499,0.834-0.523,1.296  c-0.001,0.006-0.001,0.012-0.002,0.018c0,0.006,0,0.012,0,0.019c-0.001,0.006-0.001,0.012-0.001,0.018s0,0.012,0,0.018v0.001  c0,0.001,0,0.002,0,0.003s0,0.002,0,0.003c-0.001,0.046-0.006,0.328-0.015,0.796c-0.007,0.47-0.018,1.126-0.027,1.922  c-0.01,0.797-0.02,1.733-0.027,2.757c-0.007,1.024-0.013,2.136-0.013,3.277s0.006,2.253,0.013,3.278  c0.008,1.022,0.018,1.959,0.027,2.757c0.01,0.796,0.021,1.453,0.027,1.923c0.009,0.468,0.014,0.75,0.015,0.797  c0,0.001,0,0.002,0,0.003s0,0.002,0,0.003l0,0c0,0.007,0,0.012,0,0.019c0,0.006,0,0.012,0.001,0.019c0,0.005,0,0.012,0,0.018  c0.001,0.006,0.001,0.012,0.002,0.018c0.024,0.461,0.21,0.898,0.523,1.296c0.313,0.396,0.755,0.751,1.294,1.049  c0.538,0.298,1.173,0.537,1.875,0.702c0.702,0.166,1.471,0.257,2.276,0.257h1.479c0.806,0,1.574-0.091,2.275-0.257  c0.702-0.165,1.338-0.404,1.876-0.702s0.98-0.653,1.293-1.049c0.313-0.397,0.499-0.835,0.524-1.296c0-0.006,0-0.012,0.001-0.018  c0-0.006,0.001-0.013,0.001-0.018c0-0.007,0-0.013,0-0.019c0.001-0.007,0.001-0.012,0.001-0.019l0,0c0-0.001,0-0.002,0-0.003  s0-0.002,0-0.003c0-0.047,0.006-0.329,0.014-0.797c0.008-0.47,0.018-1.127,0.027-1.923c0.01-0.798,0.021-1.734,0.027-2.757  C94.995,52.253,95,51.142,95,50S94.995,47.747,94.987,46.723z"/>
<path d="M73.943,36.502H6.698C5.761,36.502,5,37.263,5,38.201v23.6c0,0.938,0.761,1.698,1.698,1.698h67.245  c0.938,0,1.698-0.76,1.698-1.698v-23.6C75.642,37.263,74.882,36.502,73.943,36.502z M66.359,38.346c0-0.268,0.218-0.484,0.485-0.484  h2.668c0.268,0,0.484,0.217,0.484,0.484v0.971c0,0.268-0.217,0.484-0.484,0.484h-2.668c-0.268,0-0.485-0.217-0.485-0.484V38.346z   M55.114,50.343v2.184c0,0.401-0.325,0.728-0.728,0.728h-2.182c-0.402,0-0.729-0.326-0.729-0.728v-2.184  c0-0.401,0.326-0.728,0.729-0.728h2.182C54.789,49.615,55.114,49.941,55.114,50.343z M54.631,48.082v-2.183  c0-0.402,0.326-0.728,0.728-0.728h2.183c0.401,0,0.728,0.325,0.728,0.728v2.183c0,0.402-0.326,0.728-0.728,0.728h-2.183  C54.957,48.81,54.631,48.484,54.631,48.082z M54.801,54.786c0-0.401,0.326-0.728,0.729-0.728h2.183c0.402,0,0.728,0.326,0.728,0.728  v2.184c0,0.401-0.325,0.728-0.728,0.728h-2.183c-0.402,0-0.729-0.326-0.729-0.728V54.786z M56.823,53.254  c-0.402,0-0.728-0.326-0.728-0.728v-2.184c0-0.401,0.325-0.728,0.728-0.728h2.183c0.402,0,0.728,0.326,0.728,0.728v2.184  c0,0.401-0.325,0.728-0.728,0.728H56.823z M59.222,48.082v-2.183c0-0.402,0.326-0.728,0.728-0.728h2.183  c0.403,0,0.729,0.325,0.729,0.728v2.183c0,0.402-0.325,0.728-0.729,0.728h-2.183C59.548,48.81,59.222,48.484,59.222,48.082z   M59.527,54.786c0-0.401,0.325-0.728,0.728-0.728h2.183c0.402,0,0.728,0.326,0.728,0.728v2.184c0,0.401-0.325,0.728-0.728,0.728  h-2.183c-0.402,0-0.728-0.326-0.728-0.728V54.786z M61.442,53.254c-0.402,0-0.728-0.326-0.728-0.728v-2.184  c0-0.401,0.325-0.728,0.728-0.728h2.183c0.402,0,0.728,0.326,0.728,0.728v2.184c0,0.401-0.325,0.728-0.728,0.728H61.442z   M64.121,54.786c0-0.401,0.326-0.728,0.728-0.728h8.247c0.401,0,0.728,0.326,0.728,0.728v2.184c0,0.401-0.326,0.728-0.728,0.728  h-8.247c-0.401,0-0.728-0.326-0.728-0.728V54.786z M68.972,52.526c0,0.401-0.325,0.728-0.728,0.728h-2.183  c-0.401,0-0.729-0.326-0.729-0.728v-2.184c0-0.401,0.327-0.728,0.729-0.728h2.183c0.402,0,0.728,0.326,0.728,0.728V52.526z   M67.451,48.082c0,0.402-0.326,0.728-0.729,0.728H64.54c-0.401,0-0.728-0.325-0.728-0.728v-2.183c0-0.402,0.326-0.728,0.728-0.728  h2.183c0.402,0,0.729,0.325,0.729,0.728V48.082z M63.758,43.639v-2.183c0-0.402,0.325-0.728,0.728-0.728h2.183  c0.401,0,0.728,0.325,0.728,0.728v2.183c0,0.402-0.326,0.728-0.728,0.728h-2.183C64.083,44.366,63.758,44.041,63.758,43.639z   M62.073,38.346c0-0.268,0.218-0.484,0.485-0.484h2.668c0.268,0,0.485,0.217,0.485,0.484v0.971c0,0.268-0.218,0.484-0.485,0.484  h-2.668c-0.268,0-0.485-0.217-0.485-0.484V38.346z M62.612,41.456v2.183c0,0.402-0.325,0.728-0.728,0.728h-2.183  c-0.402,0-0.728-0.325-0.728-0.728v-2.183c0-0.402,0.325-0.728,0.728-0.728h2.183C62.287,40.729,62.612,41.054,62.612,41.456z   M57.788,38.346c0-0.268,0.217-0.484,0.485-0.484h2.668c0.268,0,0.484,0.217,0.484,0.484v0.971c0,0.268-0.217,0.484-0.484,0.484  h-2.668c-0.269,0-0.485-0.217-0.485-0.484V38.346z M57.829,41.456v2.183c0,0.402-0.326,0.728-0.728,0.728h-2.183  c-0.402,0-0.728-0.325-0.728-0.728v-2.183c0-0.402,0.325-0.728,0.728-0.728h2.183C57.503,40.729,57.829,41.054,57.829,41.456z   M53.502,38.346c0-0.268,0.218-0.484,0.485-0.484h2.668c0.269,0,0.484,0.217,0.484,0.484v0.971c0,0.268-0.216,0.484-0.484,0.484  h-2.668c-0.268,0-0.485-0.217-0.485-0.484V38.346z M53.678,45.899v2.183c0,0.402-0.326,0.728-0.728,0.728h-2.183  c-0.402,0-0.729-0.325-0.729-0.728v-2.183c0-0.402,0.326-0.728,0.729-0.728h2.183C53.352,45.172,53.678,45.497,53.678,45.899z   M14.522,50.343c0-0.401,0.325-0.728,0.728-0.728h2.184c0.4,0,0.727,0.326,0.727,0.728v2.184c0,0.401-0.326,0.728-0.727,0.728H15.25  c-0.402,0-0.728-0.326-0.728-0.728V50.343z M14.037,48.81c-0.402,0-0.728-0.325-0.728-0.728v-2.183c0-0.402,0.325-0.728,0.728-0.728  h2.184c0.401,0,0.727,0.325,0.727,0.728v2.183c0,0.402-0.325,0.728-0.727,0.728H14.037z M17.9,48.082v-2.183  c0-0.402,0.326-0.728,0.729-0.728h2.183c0.401,0,0.728,0.325,0.728,0.728v2.183c0,0.402-0.326,0.728-0.728,0.728h-2.183  C18.227,48.81,17.9,48.484,17.9,48.082z M20.709,43.639v-2.183c0-0.402,0.325-0.728,0.727-0.728h2.184  c0.402,0,0.728,0.325,0.728,0.728v2.183c0,0.402-0.325,0.728-0.728,0.728h-2.184C21.034,44.366,20.709,44.041,20.709,43.639z   M19.142,50.343c0-0.401,0.325-0.728,0.728-0.728h2.184c0.401,0,0.727,0.326,0.727,0.728v2.184c0,0.401-0.325,0.728-0.727,0.728  h-2.184c-0.402,0-0.728-0.326-0.728-0.728V50.343z M22.492,48.082v-2.183c0-0.402,0.326-0.728,0.728-0.728h2.183  c0.402,0,0.728,0.325,0.728,0.728v2.183c0,0.402-0.325,0.728-0.728,0.728H23.22C22.818,48.81,22.492,48.484,22.492,48.082z   M33.913,43.639c0,0.402-0.325,0.728-0.728,0.728h-2.183c-0.402,0-0.728-0.325-0.728-0.728v-2.183c0-0.402,0.325-0.728,0.728-0.728  h2.183c0.402,0,0.728,0.325,0.728,0.728V43.639z M34.584,45.172c0.402,0,0.729,0.325,0.729,0.728v2.183  c0,0.402-0.326,0.728-0.729,0.728h-2.182c-0.402,0-0.728-0.325-0.728-0.728v-2.183c0-0.402,0.325-0.728,0.728-0.728H34.584z   M30.721,45.899v2.183c0,0.402-0.324,0.728-0.727,0.728h-2.184c-0.401,0-0.727-0.325-0.727-0.728v-2.183  c0-0.402,0.325-0.728,0.727-0.728h2.184C30.396,45.172,30.721,45.497,30.721,45.899z M29.13,43.639c0,0.402-0.325,0.728-0.728,0.728  h-2.184c-0.401,0-0.727-0.325-0.727-0.728v-2.183c0-0.402,0.325-0.728,0.727-0.728h2.184c0.402,0,0.728,0.325,0.728,0.728V43.639z   M23.762,50.343c0-0.401,0.325-0.728,0.727-0.728h2.184c0.401,0,0.727,0.326,0.727,0.728v2.184c0,0.401-0.325,0.728-0.727,0.728  h-2.184c-0.401,0-0.727-0.326-0.727-0.728V50.343z M26.444,54.786c0-0.401,0.325-0.728,0.728-0.728h2.184  c0.401,0,0.727,0.326,0.727,0.728v2.184c0,0.401-0.325,0.728-0.727,0.728h-2.184c-0.402,0-0.728-0.326-0.728-0.728V54.786z   M29.107,53.254c-0.401,0-0.728-0.326-0.728-0.728v-2.184c0-0.401,0.326-0.728,0.728-0.728h2.184c0.401,0,0.727,0.326,0.727,0.728  v2.184c0,0.401-0.325,0.728-0.727,0.728H29.107z M31.17,54.786c0-0.401,0.326-0.728,0.729-0.728h2.183  c0.401,0,0.728,0.326,0.728,0.728v2.184c0,0.401-0.326,0.728-0.728,0.728h-2.183c-0.402,0-0.729-0.326-0.729-0.728V54.786z   M33.727,53.254c-0.401,0-0.727-0.326-0.727-0.728v-2.184c0-0.401,0.325-0.728,0.727-0.728h2.184c0.402,0,0.727,0.326,0.727,0.728  v2.184c0,0.401-0.324,0.728-0.727,0.728H33.727z M36.266,48.082v-2.183c0-0.402,0.326-0.728,0.728-0.728h2.183  c0.402,0,0.729,0.325,0.729,0.728v2.183c0,0.402-0.326,0.728-0.729,0.728h-2.183C36.592,48.81,36.266,48.484,36.266,48.082z   M35.896,54.786c0-0.401,0.326-0.728,0.728-0.728h2.183c0.402,0,0.729,0.326,0.729,0.728v2.184c0,0.401-0.326,0.728-0.729,0.728  h-2.183c-0.401,0-0.728-0.326-0.728-0.728V54.786z M38.346,53.254c-0.401,0-0.728-0.326-0.728-0.728v-2.184  c0-0.401,0.326-0.728,0.728-0.728h2.184c0.401,0,0.727,0.326,0.727,0.728v2.184c0,0.401-0.325,0.728-0.727,0.728H38.346z   M40.623,54.786c0-0.401,0.326-0.728,0.728-0.728h2.183c0.402,0,0.728,0.326,0.728,0.728v2.184c0,0.401-0.325,0.728-0.728,0.728  h-2.183c-0.401,0-0.728-0.326-0.728-0.728V54.786z M42.965,53.254c-0.401,0-0.727-0.326-0.727-0.728v-2.184  c0-0.401,0.325-0.728,0.727-0.728h2.184c0.402,0,0.728,0.326,0.728,0.728v2.184c0,0.401-0.325,0.728-0.728,0.728H42.965z   M45.35,54.786c0-0.401,0.325-0.728,0.727-0.728h2.184c0.401,0,0.727,0.326,0.727,0.728v2.184c0,0.401-0.325,0.728-0.727,0.728  h-2.184c-0.401,0-0.727-0.326-0.727-0.728V54.786z M47.584,53.254c-0.401,0-0.727-0.326-0.727-0.728v-2.184  c0-0.401,0.325-0.728,0.727-0.728h2.184c0.402,0,0.728,0.326,0.728,0.728v2.184c0,0.401-0.325,0.728-0.728,0.728H47.584z   M53.046,43.639c0,0.402-0.325,0.728-0.728,0.728h-2.183c-0.402,0-0.728-0.325-0.728-0.728v-2.183c0-0.402,0.325-0.728,0.728-0.728  h2.183c0.402,0,0.728,0.325,0.728,0.728V43.639z M49.217,38.346c0-0.268,0.217-0.484,0.484-0.484h2.668  c0.268,0,0.485,0.217,0.485,0.484v0.971c0,0.268-0.218,0.484-0.485,0.484h-2.668c-0.268,0-0.484-0.217-0.484-0.484V38.346z   M49.086,45.899v2.183c0,0.402-0.325,0.728-0.728,0.728h-2.183c-0.402,0-0.729-0.325-0.729-0.728v-2.183  c0-0.402,0.326-0.728,0.729-0.728h2.183C48.761,45.172,49.086,45.497,49.086,45.899z M44.931,38.346  c0-0.268,0.218-0.484,0.485-0.484h2.668c0.268,0,0.484,0.217,0.484,0.484v0.971c0,0.268-0.217,0.484-0.484,0.484h-2.668  c-0.268,0-0.485-0.217-0.485-0.484V38.346z M44.625,41.456c0-0.402,0.326-0.728,0.727-0.728h2.184c0.402,0,0.728,0.325,0.728,0.728  v2.183c0,0.402-0.325,0.728-0.728,0.728h-2.184c-0.4,0-0.727-0.325-0.727-0.728V41.456z M44.495,48.082  c0,0.402-0.326,0.728-0.728,0.728h-2.184c-0.401,0-0.727-0.325-0.727-0.728v-2.183c0-0.402,0.325-0.728,0.727-0.728h2.184  c0.401,0,0.728,0.325,0.728,0.728V48.082z M40.645,38.346c0-0.268,0.218-0.484,0.486-0.484h2.667c0.269,0,0.485,0.217,0.485,0.484  v0.971c0,0.268-0.217,0.484-0.485,0.484h-2.667c-0.269,0-0.486-0.217-0.486-0.484V38.346z M40.569,40.729h2.183  c0.402,0,0.728,0.325,0.728,0.728v2.183c0,0.402-0.325,0.728-0.728,0.728h-2.183c-0.402,0-0.728-0.325-0.728-0.728v-2.183  C39.842,41.054,40.167,40.729,40.569,40.729z M36.359,38.346c0-0.268,0.217-0.484,0.484-0.484h2.668  c0.269,0,0.486,0.217,0.486,0.484v0.971c0,0.268-0.218,0.484-0.486,0.484h-2.668c-0.268,0-0.484-0.217-0.484-0.484V38.346z   M37.969,40.729c0.402,0,0.728,0.325,0.728,0.728v2.183c0,0.402-0.325,0.728-0.728,0.728h-2.183c-0.401,0-0.728-0.325-0.728-0.728  v-2.183c0-0.402,0.326-0.728,0.728-0.728H37.969z M32.073,38.346c0-0.268,0.218-0.484,0.485-0.484h2.668  c0.268,0,0.484,0.217,0.484,0.484v0.971c0,0.268-0.217,0.484-0.484,0.484h-2.668c-0.268,0-0.485-0.217-0.485-0.484V38.346z   M27.787,38.346c0-0.268,0.218-0.484,0.486-0.484h2.668c0.268,0,0.484,0.217,0.484,0.484v0.971c0,0.268-0.217,0.484-0.484,0.484  h-2.668c-0.269,0-0.486-0.217-0.486-0.484V38.346z M23.502,38.346c0-0.268,0.217-0.484,0.484-0.484h2.668  c0.269,0,0.486,0.217,0.486,0.484v0.971c0,0.268-0.218,0.484-0.486,0.484h-2.668c-0.268,0-0.484-0.217-0.484-0.484V38.346z   M19.217,38.346c0-0.268,0.217-0.484,0.484-0.484h2.668c0.268,0,0.485,0.217,0.485,0.484v0.971c0,0.268-0.218,0.484-0.485,0.484  h-2.668c-0.268,0-0.484-0.217-0.484-0.484V38.346z M19.563,41.456v2.183c0,0.402-0.325,0.728-0.728,0.728h-2.184  c-0.401,0-0.727-0.325-0.727-0.728v-2.183c0-0.402,0.325-0.728,0.727-0.728h2.184C19.238,40.729,19.563,41.054,19.563,41.456z   M14.93,38.346c0-0.268,0.219-0.484,0.486-0.484h2.668c0.268,0,0.484,0.217,0.484,0.484v0.971c0,0.268-0.217,0.484-0.484,0.484  h-2.668c-0.268,0-0.486-0.217-0.486-0.484V38.346z M14.78,41.456v2.183c0,0.402-0.325,0.728-0.728,0.728h-2.184  c-0.401,0-0.727-0.325-0.727-0.728v-2.183c0-0.402,0.325-0.728,0.727-0.728h2.184C14.455,40.729,14.78,41.054,14.78,41.456z   M10.645,38.346c0-0.268,0.217-0.484,0.485-0.484h2.668c0.268,0,0.485,0.217,0.485,0.484v0.971c0,0.268-0.218,0.484-0.485,0.484  H11.13c-0.269,0-0.485-0.217-0.485-0.484V38.346z M6.359,38.346c0-0.268,0.217-0.484,0.484-0.484h2.668  c0.268,0,0.485,0.217,0.485,0.484v0.971c0,0.268-0.218,0.484-0.485,0.484H6.844c-0.268,0-0.484-0.217-0.484-0.484V38.346z   M6.359,41.456c0-0.402,0.325-0.728,0.727-0.728H9.27c0.402,0,0.728,0.325,0.728,0.728v2.183c0,0.402-0.325,0.728-0.728,0.728H7.086  c-0.401,0-0.727-0.325-0.727-0.728V41.456z M6.359,45.899c0-0.402,0.325-0.728,0.727-0.728h4.609c0.401,0,0.727,0.325,0.727,0.728  v2.183c0,0.402-0.325,0.728-0.727,0.728H7.086c-0.401,0-0.727-0.325-0.727-0.728V45.899z M6.359,50.343  c0-0.401,0.325-0.728,0.727-0.728h5.822c0.401,0,0.727,0.326,0.727,0.728v2.184c0,0.401-0.325,0.728-0.727,0.728H7.086  c-0.401,0-0.727-0.326-0.727-0.728V50.343z M9.997,61.413c0,0.402-0.325,0.728-0.728,0.728H7.087c-0.402,0-0.728-0.325-0.728-0.728  V59.23c0-0.402,0.325-0.728,0.728-0.728H9.27c0.402,0,0.728,0.325,0.728,0.728V61.413z M7.086,57.697  c-0.401,0-0.727-0.326-0.727-0.728v-2.184c0-0.401,0.325-0.728,0.727-0.728h3.396c0.401,0,0.728,0.326,0.728,0.728v2.184  c0,0.401-0.326,0.728-0.728,0.728H7.086z M14.632,61.413c0,0.402-0.326,0.728-0.728,0.728h-2.184c-0.401,0-0.727-0.325-0.727-0.728  V59.23c0-0.402,0.325-0.728,0.727-0.728h2.184c0.401,0,0.728,0.325,0.728,0.728V61.413z M12.994,57.697  c-0.402,0-0.729-0.326-0.729-0.728v-2.184c0-0.401,0.326-0.728,0.729-0.728h2.183c0.401,0,0.728,0.326,0.728,0.728v2.184  c0,0.401-0.326,0.728-0.728,0.728H12.994z M19.266,61.413c0,0.402-0.324,0.728-0.727,0.728h-2.184c-0.401,0-0.727-0.325-0.727-0.728  V59.23c0-0.402,0.325-0.728,0.727-0.728h2.184c0.402,0,0.727,0.325,0.727,0.728V61.413z M17.72,57.697  c-0.401,0-0.728-0.326-0.728-0.728v-2.184c0-0.401,0.326-0.728,0.728-0.728h2.183c0.402,0,0.729,0.326,0.729,0.728v2.184  c0,0.401-0.326,0.728-0.729,0.728H17.72z M24.992,61.413c0,0.402-0.326,0.728-0.727,0.728h-3.396c-0.402,0-0.728-0.325-0.728-0.728  V59.23c0-0.402,0.325-0.728,0.728-0.728h3.396c0.4,0,0.727,0.325,0.727,0.728V61.413z M25.356,56.97  c0,0.401-0.325,0.728-0.728,0.728h-2.184c-0.401,0-0.727-0.326-0.727-0.728v-2.184c0-0.401,0.325-0.728,0.727-0.728h2.184  c0.402,0,0.728,0.326,0.728,0.728V56.97z M50.37,61.413c0,0.402-0.326,0.728-0.728,0.728h-22.8c-0.401,0-0.728-0.325-0.728-0.728  V59.23c0-0.402,0.326-0.728,0.728-0.728h22.8c0.401,0,0.728,0.325,0.728,0.728V61.413z M50.074,56.97v-2.184  c0-0.401,0.326-0.728,0.729-0.728h2.183c0.402,0,0.728,0.326,0.728,0.728v2.184c0,0.401-0.325,0.728-0.728,0.728h-2.183  C50.4,57.697,50.074,57.371,50.074,56.97z M56.374,61.413c0,0.402-0.326,0.728-0.728,0.728h-3.396c-0.402,0-0.728-0.325-0.728-0.728  V59.23c0-0.402,0.325-0.728,0.728-0.728h3.396c0.401,0,0.728,0.325,0.728,0.728V61.413z M60.804,61.413  c0,0.402-0.325,0.728-0.727,0.728h-2.184c-0.402,0-0.728-0.325-0.728-0.728V59.23c0-0.402,0.325-0.728,0.728-0.728h2.184  c0.401,0,0.727,0.325,0.727,0.728V61.413z M65.47,61.656c0,0.268-0.218,0.484-0.485,0.484h-2.668c-0.268,0-0.485-0.217-0.485-0.484  v-0.971c0-0.269,0.218-0.485,0.485-0.485h2.668c0.268,0,0.485,0.217,0.485,0.485V61.656z M69.693,61.413  c0,0.402-0.326,0.728-0.729,0.728h-2.183c-0.401,0-0.728-0.325-0.728-0.728V59.23c0-0.402,0.326-0.728,0.728-0.728h2.183  c0.402,0,0.729,0.325,0.729,0.728V61.413z M73.906,61.656c0,0.268-0.216,0.484-0.484,0.484h-2.668c-0.268,0-0.485-0.217-0.485-0.484  v-0.971c0-0.269,0.218-0.485,0.485-0.485h2.668c0.269,0,0.484,0.217,0.484,0.485V61.656z M74.242,52.526  c0,0.401-0.325,0.728-0.728,0.728h-2.519c-0.401,0-0.728-0.326-0.728-0.728V48.81h-0.569c-0.401,0-0.728-0.325-0.728-0.728v-2.183  c0-0.402,0.326-0.728,0.728-0.728h1.297h0.531h1.987c0.402,0,0.728,0.325,0.728,0.728V52.526z M74.242,43.639  c0,0.402-0.326,0.728-0.728,0.728h-4.608c-0.402,0-0.728-0.325-0.728-0.728v-2.183c0-0.402,0.325-0.728,0.728-0.728h4.608  c0.401,0,0.728,0.325,0.728,0.728V43.639z M74.283,39.316c0,0.268-0.217,0.484-0.484,0.484H71.13c-0.268,0-0.484-0.217-0.484-0.484  v-0.971c0-0.268,0.217-0.484,0.484-0.484h2.669c0.268,0,0.484,0.217,0.484,0.484V39.316z"/>
</svg>